<!DOCTYPE svg PUBLIC "-//W3C//DTD SVG 20010904//EN" "http://www.w3.org/TR/2001/REC-SVG-20010904/DTD/svg10.dtd">
<svg version="1.0" xmlns="http://www.w3.org/2000/svg" width="31px" height="50px" viewBox="0 0 310 500" preserveAspectRatio="xMidYMid meet">
<g id="layer101" fill="#3c5d25" stroke="none">
 <path d="M184 412 c-19 -12 -34 -49 -34 -83 l0 -32 -38 54 c-30 44 -44 55 -70 57 -40 4 -42 -12 -2 -28 37 -15 54 -42 75 -116 18 -61 41 -98 56 -88 5 3 9 37 9 75 0 39 7 85 15 106 15 35 15 36 67 31 l52 -5 -23 18 c-23 19 -86 26 -107 11z"/>
 <path d="M155 110 c-8 -26 6 -43 31 -38 13 2 19 12 19 28 0 34 -40 41 -50 10z"/>
 </g>
<g id="layer102" fill="#7a906a" stroke="none">
 <path d="M172 270 c0 -19 2 -27 5 -17 2 9 2 25 0 35 -3 9 -5 1 -5 -18z"/>
 <path d="M197 107 c4 -20 0 -26 -16 -30 -20 -4 -20 -5 1 -3 24 1 37 31 20 48 -6 6 -8 1 -5 -15z"/>
 </g>

</svg>